<?xml version="1.0" encoding="UTF-8" standalone="no"?><!-- Generator: Gravit.io --><svg xmlns="http://www.w3.org/2000/svg" xmlns:xlink="http://www.w3.org/1999/xlink" style="isolation:isolate" viewBox="141.792 130 48 48" width="48pt" height="48pt"><defs><clipPath id="_clipPath_g7zYTRPVFpdwhBGNAaRMe3gE8srVlrAl"><rect x="141.792" y="130" width="48" height="48"/></clipPath></defs><g clip-path="url(#_clipPath_g7zYTRPVFpdwhBGNAaRMe3gE8srVlrAl)"><g opacity="0"><rect x="141.792" y="130" width="48" height="48" transform="matrix(1,0,0,1,0,0)" fill="rgb(235,235,235)"/></g><path d=" M 170.4 165.754 L 170.4 165.754 L 170.4 165.754 Q 170.4 168.555 172.092 170.4 L 172.092 170.4 L 172.092 170.4 Q 173.783 172.244 176.584 172.244 L 176.584 172.244 L 176.584 172.244 Q 179.385 172.244 181.161 170.484 L 181.161 170.484 L 181.161 170.484 Q 182.937 168.724 182.937 165.659 L 182.937 165.659 L 182.937 165.659 Q 182.937 162.594 181.177 160.887 L 181.177 160.887 L 181.177 160.887 Q 179.417 159.179 176.679 159.179 L 176.679 159.179 L 176.679 159.179 Q 173.942 159.179 172.171 161.066 L 172.171 161.066 L 172.171 161.066 Q 170.4 162.953 170.4 165.754 Z  M 170.675 171.695 L 170.675 171.695 Q 169.618 170.606 169.042 169.116 L 169.042 169.116 L 169.042 169.116 Q 168.466 167.625 168.466 166.124 L 168.466 166.124 L 168.466 166.124 Q 168.466 163.439 169.587 161.5 L 169.587 161.5 L 169.587 161.5 Q 170.707 159.56 172.615 158.487 L 172.615 158.487 L 172.615 158.487 Q 174.523 157.414 176.774 157.414 L 176.774 157.414 L 176.774 157.414 Q 178.392 157.414 179.866 157.964 L 179.866 157.964 L 179.866 157.964 Q 181.341 158.514 182.466 159.549 L 182.466 159.549 L 182.466 159.549 Q 183.592 160.585 184.258 162.076 L 184.258 162.076 L 184.258 162.076 Q 184.924 163.566 184.924 165.437 L 184.924 165.437 L 184.924 165.437 Q 184.924 169.232 182.657 171.621 L 182.657 171.621 L 182.657 171.621 Q 180.389 174.01 176.663 174.01 L 176.663 174.01 L 176.663 174.01 Q 172.937 174.01 170.675 171.695 L 170.675 171.695 Z  M 155 173.946 L 155 173.946 L 155 173.946 Q 153.721 173.682 151.258 173.682 L 151.258 173.682 L 151.258 173.682 Q 148.795 173.682 147.727 173.766 L 147.727 173.766 L 147.727 173.766 Q 146.66 173.851 146.48 173.851 L 146.48 173.851 L 146.48 173.851 Q 145.539 173.851 145.539 172.984 L 145.539 172.984 L 145.539 172.984 Q 145.539 172.382 146.533 172.16 L 146.533 172.16 L 146.533 172.16 Q 146.871 172.086 147.347 172.086 L 147.347 172.086 L 148.224 172.086 L 148.224 159.116 L 147.156 159.116 L 147.156 159.116 Q 146.617 159.116 146.295 158.883 L 146.295 158.883 L 146.295 158.883 Q 145.973 158.651 145.973 158.27 L 145.973 158.27 L 145.973 158.27 Q 145.973 157.89 146.247 157.652 L 146.247 157.652 L 146.247 157.652 Q 146.522 157.414 146.998 157.414 L 146.998 157.414 L 149.218 157.488 L 151.3 157.414 L 151.3 157.414 Q 152.146 157.414 152.368 157.932 L 152.368 157.932 L 152.368 157.932 Q 152.431 158.08 152.431 158.239 L 152.431 158.239 L 152.431 158.239 Q 152.431 159.116 151.089 159.116 L 151.089 159.116 L 150.19 159.116 L 150.19 172.117 L 150.19 172.117 Q 152.854 172.287 153.736 172.287 L 153.736 172.287 L 153.736 172.287 Q 154.619 172.287 154.852 172.181 L 154.852 172.181 L 154.852 172.181 Q 155.475 171.927 156.136 170.749 L 156.136 170.749 L 156.136 170.749 Q 156.797 169.57 157.119 169.285 L 157.119 169.285 L 157.119 169.285 Q 157.441 168.999 157.79 168.999 L 157.79 168.999 L 157.79 168.999 Q 158.498 168.999 158.593 169.813 L 158.593 169.813 L 158.593 169.813 Q 158.604 169.855 158.604 170.046 L 158.604 170.046 L 158.604 170.046 Q 158.604 170.236 158.16 170.844 L 158.16 170.844 L 158.16 170.844 Q 157.716 171.452 157.314 172.387 L 157.314 172.387 L 157.314 172.387 Q 156.913 173.322 156.765 173.988 L 156.765 173.988 L 156.765 173.988 Q 156.501 175.151 155.856 175.151 L 155.856 175.151 L 155.856 175.151 Q 155.486 175.151 155.237 174.876 L 155.237 174.876 L 155.237 174.876 Q 154.989 174.601 154.989 174.158 L 154.989 174.158 L 154.989 174.158 Q 154.989 174.105 154.989 174.052 L 154.989 174.052 L 154.989 174.052 Q 154.989 173.999 155 173.946 Z  M 177.969 136.474 L 174.977 143.039 L 174.977 143.039 Q 177.313 144.836 177.588 145.11 L 177.588 145.11 L 177.969 145.501 L 177.969 145.501 Q 178.296 145.808 178.518 145.808 L 178.518 145.808 L 178.518 145.808 Q 178.74 145.808 178.91 145.697 L 178.91 145.697 L 178.91 145.697 Q 179.079 145.586 179.317 145.338 L 179.317 145.338 L 179.317 145.338 Q 179.554 145.089 179.85 144.846 L 179.85 144.846 L 182.207 143.028 L 179.322 136.802 L 179.322 136.802 Q 179.036 136.178 178.873 135.861 L 178.873 135.861 L 178.873 135.861 Q 178.709 135.544 178.577 135.544 L 178.577 135.544 L 178.577 135.544 Q 178.444 135.544 178.312 135.772 L 178.312 135.772 L 178.312 135.772 Q 178.18 135.999 177.969 136.474 L 177.969 136.474 Z  M 173.73 149.508 L 171.341 149.412 L 169.777 149.497 L 169.777 149.497 Q 168.952 149.497 168.952 148.831 L 168.952 148.831 L 168.952 148.831 Q 168.952 148.398 169.639 147.869 L 169.639 147.869 L 169.639 147.869 Q 170.866 146.897 171.923 144.846 L 171.923 144.846 L 175.601 137.447 L 176.912 134.667 L 176.912 134.667 Q 177.377 133.642 177.71 133.245 L 177.71 133.245 L 177.71 133.245 Q 178.043 132.849 178.561 132.849 L 178.561 132.849 L 178.561 132.849 Q 179.079 132.849 179.433 133.198 L 179.433 133.198 L 179.433 133.198 Q 179.787 133.546 180.284 134.614 L 180.284 134.614 L 182.599 139.561 L 182.599 139.561 Q 185.569 145.459 185.759 145.808 L 185.759 145.808 L 186.15 146.516 L 186.15 146.516 Q 186.615 147.33 186.795 147.499 L 186.795 147.499 L 186.795 147.499 Q 186.975 147.668 187.165 147.785 L 187.165 147.785 L 187.165 147.785 Q 188 148.281 188 148.673 L 188 148.673 L 188 148.673 Q 188 149.497 187.176 149.497 L 187.176 149.497 L 185.579 149.423 L 183.434 149.497 L 183.434 149.497 Q 182.895 149.497 182.588 149.286 L 182.588 149.286 L 182.588 149.286 Q 182.281 149.074 182.281 148.651 L 182.281 148.651 L 182.281 148.651 Q 182.281 147.785 184.205 147.785 L 184.205 147.785 L 184.205 147.785 Q 184.322 147.785 184.438 147.785 L 184.438 147.785 L 184.438 147.785 Q 184.554 147.785 184.67 147.774 L 184.67 147.774 L 184.67 147.774 Q 184.385 147.362 184.078 146.728 L 184.078 146.728 L 183 144.529 L 181.013 146.072 L 181.013 146.072 Q 180.041 146.823 179.565 147.399 L 179.565 147.399 L 179.565 147.399 Q 179.089 147.975 178.698 147.975 L 178.698 147.975 L 178.698 147.975 Q 178.307 147.975 178.08 147.785 L 178.08 147.785 L 178.08 147.785 Q 177.853 147.594 177.673 147.383 L 177.673 147.383 L 177.229 146.876 L 177.229 146.876 Q 177.039 146.654 176.722 146.4 L 176.722 146.4 L 175.094 145.184 L 175.094 145.184 Q 174.597 144.825 174.079 144.413 L 174.079 144.413 L 172.525 147.838 L 172.842 147.838 L 172.842 147.838 Q 173.878 147.838 174.343 148.023 L 174.343 148.023 L 174.343 148.023 Q 174.808 148.207 174.808 148.725 L 174.808 148.725 L 174.808 148.725 Q 174.808 149.508 173.73 149.508 L 173.73 149.508 Z  M 148.7 149.497 L 146.723 149.434 L 144.609 149.497 L 144.609 149.497 Q 144.133 149.497 143.858 149.27 L 143.858 149.27 L 143.858 149.27 Q 143.584 149.043 143.584 148.662 L 143.584 148.662 L 143.584 148.662 Q 143.584 148.281 143.906 148.038 L 143.906 148.038 L 143.906 148.038 Q 144.228 147.795 144.789 147.795 L 144.789 147.795 L 145.655 147.795 L 145.655 134.762 L 144.789 134.762 L 144.789 134.762 Q 144.228 134.762 143.906 134.53 L 143.906 134.53 L 143.906 134.53 Q 143.584 134.297 143.584 133.916 L 143.584 133.916 L 143.584 133.916 Q 143.584 133.536 143.858 133.298 L 143.858 133.298 L 143.858 133.298 Q 144.133 133.06 144.609 133.06 L 144.609 133.06 L 146.723 133.134 L 148.7 133.06 L 148.7 133.06 Q 149.545 133.06 149.767 133.578 L 149.767 133.578 L 149.767 133.578 Q 149.831 133.726 149.831 133.885 L 149.831 133.885 L 149.831 133.885 Q 149.831 134.762 148.478 134.762 L 148.478 134.762 L 147.622 134.762 L 147.622 138.969 L 155.211 138.969 L 155.211 134.762 L 154.217 134.762 L 154.217 134.762 Q 153.678 134.762 153.351 134.53 L 153.351 134.53 L 153.351 134.53 Q 153.023 134.297 153.023 133.916 L 153.023 133.916 L 153.023 133.916 Q 153.023 133.536 153.298 133.298 L 153.298 133.298 L 153.298 133.298 Q 153.573 133.06 154.059 133.06 L 154.059 133.06 L 156.162 133.134 L 158.118 133.06 L 158.118 133.06 Q 158.974 133.06 159.175 133.578 L 159.175 133.578 L 159.175 133.578 Q 159.238 133.726 159.238 133.885 L 159.238 133.885 L 159.238 133.885 Q 159.238 134.762 157.928 134.762 L 157.928 134.762 L 157.166 134.762 L 157.166 147.795 L 157.928 147.795 L 157.928 147.795 Q 158.657 147.795 158.948 148.054 L 158.948 148.054 L 158.948 148.054 Q 159.238 148.313 159.238 148.577 L 159.238 148.577 L 159.238 148.577 Q 159.238 149.497 158.118 149.497 L 158.118 149.497 L 156.162 149.434 L 154.059 149.497 L 154.059 149.497 Q 153.573 149.497 153.298 149.27 L 153.298 149.27 L 153.298 149.27 Q 153.023 149.043 153.023 148.662 L 153.023 148.662 L 153.023 148.662 Q 153.023 148.281 153.351 148.038 L 153.351 148.038 L 153.351 148.038 Q 153.678 147.795 154.217 147.795 L 154.217 147.795 L 155.211 147.795 L 155.211 140.523 L 147.622 140.523 L 147.622 147.795 L 148.478 147.795 L 148.478 147.795 Q 149.218 147.795 149.524 148.054 L 149.524 148.054 L 149.524 148.054 Q 149.831 148.313 149.831 148.577 L 149.831 148.577 L 149.831 148.577 Q 149.831 149.497 148.7 149.497 L 148.7 149.497 Z " fill="rgb(0,0,0)"/></g></svg>