<?xml version="1.0" encoding="UTF-8" standalone="no"?><!-- Generator: Gravit.io --><svg xmlns="http://www.w3.org/2000/svg" xmlns:xlink="http://www.w3.org/1999/xlink" style="isolation:isolate" viewBox="141.792 130 48 48" width="48pt" height="48pt"><defs><clipPath id="_clipPath_M4ZEbf5iQXmF7FLi3ZQYhUSmn2c4iRmJ"><rect x="141.792" y="130" width="48" height="48"/></clipPath></defs><g clip-path="url(#_clipPath_M4ZEbf5iQXmF7FLi3ZQYhUSmn2c4iRmJ)"><rect x="141.792" y="130" width="48" height="48" transform="matrix(1,0,0,1,0,0)" fill="rgb(235,235,235)"/><path d=" M 169.778 164.166 L 169.778 164.166 L 169.778 164.166 Q 169.778 166.589 171.241 168.184 L 171.241 168.184 L 171.241 168.184 Q 172.703 169.78 175.126 169.78 L 175.126 169.78 L 175.126 169.78 Q 177.549 169.78 179.085 168.258 L 179.085 168.258 L 179.085 168.258 Q 180.621 166.735 180.621 164.084 L 180.621 164.084 L 180.621 164.084 Q 180.621 161.433 179.099 159.956 L 179.099 159.956 L 179.099 159.956 Q 177.576 158.48 175.208 158.48 L 175.208 158.48 L 175.208 158.48 Q 172.841 158.48 171.309 160.112 L 171.309 160.112 L 171.309 160.112 Q 169.778 161.744 169.778 164.166 Z  M 170.016 169.304 L 170.016 169.304 Q 169.101 168.363 168.603 167.074 L 168.603 167.074 L 168.603 167.074 Q 168.105 165.785 168.105 164.486 L 168.105 164.486 L 168.105 164.486 Q 168.105 162.164 169.074 160.487 L 169.074 160.487 L 169.074 160.487 Q 170.043 158.809 171.693 157.881 L 171.693 157.881 L 171.693 157.881 Q 173.343 156.953 175.291 156.953 L 175.291 156.953 L 175.291 156.953 Q 176.69 156.953 177.965 157.428 L 177.965 157.428 L 177.965 157.428 Q 179.24 157.904 180.214 158.8 L 180.214 158.8 L 180.214 158.8 Q 181.188 159.696 181.764 160.985 L 181.764 160.985 L 181.764 160.985 Q 182.34 162.274 182.34 163.892 L 182.34 163.892 L 182.34 163.892 Q 182.34 167.174 180.379 169.24 L 180.379 169.24 L 180.379 169.24 Q 178.417 171.307 175.195 171.307 L 175.195 171.307 L 175.195 171.307 Q 171.972 171.307 170.016 169.304 L 170.016 169.304 Z  M 156.457 171.252 L 156.457 171.252 L 156.457 171.252 Q 155.351 171.023 153.221 171.023 L 153.221 171.023 L 153.221 171.023 Q 151.091 171.023 150.167 171.096 L 150.167 171.096 L 150.167 171.096 Q 149.244 171.169 149.089 171.169 L 149.089 171.169 L 149.089 171.169 Q 148.275 171.169 148.275 170.42 L 148.275 170.42 L 148.275 170.42 Q 148.275 169.899 149.134 169.707 L 149.134 169.707 L 149.134 169.707 Q 149.427 169.643 149.838 169.643 L 149.838 169.643 L 150.597 169.643 L 150.597 158.425 L 149.674 158.425 L 149.674 158.425 Q 149.208 158.425 148.929 158.224 L 148.929 158.224 L 148.929 158.224 Q 148.65 158.023 148.65 157.694 L 148.65 157.694 L 148.65 157.694 Q 148.65 157.364 148.888 157.159 L 148.888 157.159 L 148.888 157.159 Q 149.125 156.953 149.537 156.953 L 149.537 156.953 L 151.457 157.017 L 153.258 156.953 L 153.258 156.953 Q 153.989 156.953 154.181 157.401 L 154.181 157.401 L 154.181 157.401 Q 154.236 157.529 154.236 157.666 L 154.236 157.666 L 154.236 157.666 Q 154.236 158.425 153.075 158.425 L 153.075 158.425 L 152.298 158.425 L 152.298 169.67 L 152.298 169.67 Q 154.602 169.816 155.365 169.816 L 155.365 169.816 L 155.365 169.816 Q 156.128 169.816 156.329 169.725 L 156.329 169.725 L 156.329 169.725 Q 156.869 169.506 157.44 168.486 L 157.44 168.486 L 157.44 168.486 Q 158.012 167.467 158.29 167.22 L 158.29 167.22 L 158.29 167.22 Q 158.569 166.973 158.871 166.973 L 158.871 166.973 L 158.871 166.973 Q 159.484 166.973 159.566 167.677 L 159.566 167.677 L 159.566 167.677 Q 159.575 167.714 159.575 167.878 L 159.575 167.878 L 159.575 167.878 Q 159.575 168.043 159.191 168.568 L 159.191 168.568 L 159.191 168.568 Q 158.807 169.094 158.46 169.903 L 158.46 169.903 L 158.46 169.903 Q 158.112 170.712 157.984 171.288 L 157.984 171.288 L 157.984 171.288 Q 157.756 172.294 157.198 172.294 L 157.198 172.294 L 157.198 172.294 Q 156.878 172.294 156.663 172.056 L 156.663 172.056 L 156.663 172.056 Q 156.448 171.819 156.448 171.435 L 156.448 171.435 L 156.448 171.435 Q 156.448 171.389 156.448 171.343 L 156.448 171.343 L 156.448 171.343 Q 156.448 171.297 156.457 171.252 Z  M 176.324 138.842 L 173.737 144.519 L 173.737 144.519 Q 175.757 146.074 175.995 146.311 L 175.995 146.311 L 176.324 146.65 L 176.324 146.65 Q 176.607 146.915 176.799 146.915 L 176.799 146.915 L 176.799 146.915 Q 176.991 146.915 177.138 146.819 L 177.138 146.819 L 177.138 146.819 Q 177.284 146.723 177.49 146.508 L 177.49 146.508 L 177.49 146.508 Q 177.695 146.293 177.951 146.083 L 177.951 146.083 L 179.99 144.51 L 177.494 139.125 L 177.494 139.125 Q 177.247 138.586 177.106 138.312 L 177.106 138.312 L 177.106 138.312 Q 176.964 138.037 176.85 138.037 L 176.85 138.037 L 176.85 138.037 Q 176.735 138.037 176.621 138.234 L 176.621 138.234 L 176.621 138.234 Q 176.507 138.43 176.324 138.842 L 176.324 138.842 Z  M 172.658 150.114 L 170.592 150.032 L 169.239 150.105 L 169.239 150.105 Q 168.525 150.105 168.525 149.529 L 168.525 149.529 L 168.525 149.529 Q 168.525 149.155 169.12 148.697 L 169.12 148.697 L 169.12 148.697 Q 170.18 147.856 171.094 146.083 L 171.094 146.083 L 174.276 139.683 L 175.41 137.279 L 175.41 137.279 Q 175.812 136.392 176.1 136.049 L 176.1 136.049 L 176.1 136.049 Q 176.388 135.706 176.836 135.706 L 176.836 135.706 L 176.836 135.706 Q 177.284 135.706 177.59 136.008 L 177.59 136.008 L 177.59 136.008 Q 177.896 136.309 178.326 137.233 L 178.326 137.233 L 180.328 141.511 L 180.328 141.511 Q 182.897 146.613 183.062 146.915 L 183.062 146.915 L 183.4 147.527 L 183.4 147.527 Q 183.802 148.231 183.958 148.377 L 183.958 148.377 L 183.958 148.377 Q 184.113 148.524 184.278 148.624 L 184.278 148.624 L 184.278 148.624 Q 185 149.054 185 149.392 L 185 149.392 L 185 149.392 Q 185 150.105 184.287 150.105 L 184.287 150.105 L 182.906 150.041 L 181.05 150.105 L 181.05 150.105 Q 180.584 150.105 180.319 149.922 L 180.319 149.922 L 180.319 149.922 Q 180.054 149.74 180.054 149.374 L 180.054 149.374 L 180.054 149.374 Q 180.054 148.624 181.718 148.624 L 181.718 148.624 L 181.718 148.624 Q 181.818 148.624 181.919 148.624 L 181.919 148.624 L 181.919 148.624 Q 182.02 148.624 182.12 148.615 L 182.12 148.615 L 182.12 148.615 Q 181.873 148.259 181.608 147.71 L 181.608 147.71 L 180.676 145.808 L 178.957 147.143 L 178.957 147.143 Q 178.116 147.792 177.704 148.291 L 177.704 148.291 L 177.704 148.291 Q 177.293 148.789 176.955 148.789 L 176.955 148.789 L 176.955 148.789 Q 176.616 148.789 176.42 148.624 L 176.42 148.624 L 176.42 148.624 Q 176.223 148.46 176.068 148.277 L 176.068 148.277 L 175.684 147.838 L 175.684 147.838 Q 175.519 147.646 175.245 147.427 L 175.245 147.427 L 173.837 146.375 L 173.837 146.375 Q 173.407 146.064 172.959 145.708 L 172.959 145.708 L 171.616 148.67 L 171.89 148.67 L 171.89 148.67 Q 172.786 148.67 173.188 148.83 L 173.188 148.83 L 173.188 148.83 Q 173.59 148.99 173.59 149.438 L 173.59 149.438 L 173.59 149.438 Q 173.59 150.114 172.658 150.114 L 172.658 150.114 Z  M 151.009 150.105 L 149.299 150.05 L 147.47 150.105 L 147.47 150.105 Q 147.059 150.105 146.821 149.909 L 146.821 149.909 L 146.821 149.909 Q 146.584 149.712 146.584 149.383 L 146.584 149.383 L 146.584 149.383 Q 146.584 149.054 146.862 148.844 L 146.862 148.844 L 146.862 148.844 Q 147.141 148.633 147.626 148.633 L 147.626 148.633 L 148.376 148.633 L 148.376 137.361 L 147.626 137.361 L 147.626 137.361 Q 147.141 137.361 146.862 137.16 L 146.862 137.16 L 146.862 137.16 Q 146.584 136.959 146.584 136.629 L 146.584 136.629 L 146.584 136.629 Q 146.584 136.3 146.821 136.095 L 146.821 136.095 L 146.821 136.095 Q 147.059 135.889 147.47 135.889 L 147.47 135.889 L 149.299 135.953 L 151.009 135.889 L 151.009 135.889 Q 151.74 135.889 151.932 136.337 L 151.932 136.337 L 151.932 136.337 Q 151.987 136.465 151.987 136.602 L 151.987 136.602 L 151.987 136.602 Q 151.987 137.361 150.817 137.361 L 150.817 137.361 L 150.076 137.361 L 150.076 141 L 156.64 141 L 156.64 137.361 L 155.781 137.361 L 155.781 137.361 Q 155.315 137.361 155.031 137.16 L 155.031 137.16 L 155.031 137.16 Q 154.748 136.959 154.748 136.629 L 154.748 136.629 L 154.748 136.629 Q 154.748 136.3 154.986 136.095 L 154.986 136.095 L 154.986 136.095 Q 155.223 135.889 155.644 135.889 L 155.644 135.889 L 157.463 135.953 L 159.154 135.889 L 159.154 135.889 Q 159.895 135.889 160.069 136.337 L 160.069 136.337 L 160.069 136.337 Q 160.124 136.465 160.124 136.602 L 160.124 136.602 L 160.124 136.602 Q 160.124 137.361 158.99 137.361 L 158.99 137.361 L 158.332 137.361 L 158.332 148.633 L 158.99 148.633 L 158.99 148.633 Q 159.621 148.633 159.872 148.857 L 159.872 148.857 L 159.872 148.857 Q 160.124 149.081 160.124 149.31 L 160.124 149.31 L 160.124 149.31 Q 160.124 150.105 159.154 150.105 L 159.154 150.105 L 157.463 150.05 L 155.644 150.105 L 155.644 150.105 Q 155.223 150.105 154.986 149.909 L 154.986 149.909 L 154.986 149.909 Q 154.748 149.712 154.748 149.383 L 154.748 149.383 L 154.748 149.383 Q 154.748 149.054 155.031 148.844 L 155.031 148.844 L 155.031 148.844 Q 155.315 148.633 155.781 148.633 L 155.781 148.633 L 156.64 148.633 L 156.64 142.343 L 150.076 142.343 L 150.076 148.633 L 150.817 148.633 L 150.817 148.633 Q 151.457 148.633 151.722 148.857 L 151.722 148.857 L 151.722 148.857 Q 151.987 149.081 151.987 149.31 L 151.987 149.31 L 151.987 149.31 Q 151.987 150.105 151.009 150.105 L 151.009 150.105 Z " fill="rgb(0,0,0)"/></g></svg>