<?xml version="1.0" encoding="UTF-8" standalone="no"?><!-- Generator: Gravit.io --><svg xmlns="http://www.w3.org/2000/svg" xmlns:xlink="http://www.w3.org/1999/xlink" style="isolation:isolate" viewBox="158.625 129 46 39" width="46pt" height="39pt"><defs><clipPath id="_clipPath_BeOl83WssJ2ntDNxbn29IrjOJt3CbUfg"><rect x="158.625" y="129" width="46" height="39"/></clipPath></defs><g clip-path="url(#_clipPath_BeOl83WssJ2ntDNxbn29IrjOJt3CbUfg)"><rect x="158.625" y="129" width="46" height="39" transform="matrix(1,0,0,1,0,0)" fill="rgb(235,235,235)"/><path d=" M 184.816 156.638 L 184.816 156.638 L 184.816 156.638 Q 184.816 158.577 185.986 159.854 L 185.986 159.854 L 185.986 159.854 Q 187.157 161.131 189.097 161.131 L 189.097 161.131 L 189.097 161.131 Q 191.036 161.131 192.265 159.912 L 192.265 159.912 L 192.265 159.912 Q 193.495 158.694 193.495 156.572 L 193.495 156.572 L 193.495 156.572 Q 193.495 154.449 192.276 153.268 L 192.276 153.268 L 192.276 153.268 Q 191.058 152.086 189.162 152.086 L 189.162 152.086 L 189.162 152.086 Q 187.267 152.086 186.041 153.392 L 186.041 153.392 L 186.041 153.392 Q 184.816 154.698 184.816 156.638 Z  M 185.006 160.75 L 185.006 160.75 Q 184.274 159.996 183.875 158.965 L 183.875 158.965 L 183.875 158.965 Q 183.476 157.933 183.476 156.894 L 183.476 156.894 L 183.476 156.894 Q 183.476 155.035 184.252 153.692 L 184.252 153.692 L 184.252 153.692 Q 185.028 152.349 186.349 151.606 L 186.349 151.606 L 186.349 151.606 Q 187.67 150.864 189.228 150.864 L 189.228 150.864 L 189.228 150.864 Q 190.348 150.864 191.369 151.244 L 191.369 151.244 L 191.369 151.244 Q 192.39 151.625 193.169 152.342 L 193.169 152.342 L 193.169 152.342 Q 193.948 153.059 194.409 154.091 L 194.409 154.091 L 194.409 154.091 Q 194.87 155.123 194.87 156.418 L 194.87 156.418 L 194.87 156.418 Q 194.87 159.045 193.301 160.699 L 193.301 160.699 L 193.301 160.699 Q 191.731 162.353 189.152 162.353 L 189.152 162.353 L 189.152 162.353 Q 186.572 162.353 185.006 160.75 L 185.006 160.75 Z  M 174.153 162.309 L 174.153 162.309 L 174.153 162.309 Q 173.268 162.126 171.563 162.126 L 171.563 162.126 L 171.563 162.126 Q 169.858 162.126 169.119 162.185 L 169.119 162.185 L 169.119 162.185 Q 168.38 162.243 168.255 162.243 L 168.255 162.243 L 168.255 162.243 Q 167.604 162.243 167.604 161.643 L 167.604 161.643 L 167.604 161.643 Q 167.604 161.226 168.292 161.072 L 168.292 161.072 L 168.292 161.072 Q 168.526 161.021 168.855 161.021 L 168.855 161.021 L 169.463 161.021 L 169.463 152.042 L 168.723 152.042 L 168.723 152.042 Q 168.35 152.042 168.127 151.881 L 168.127 151.881 L 168.127 151.881 Q 167.904 151.72 167.904 151.456 L 167.904 151.456 L 167.904 151.456 Q 167.904 151.193 168.094 151.028 L 168.094 151.028 L 168.094 151.028 Q 168.284 150.864 168.614 150.864 L 168.614 150.864 L 170.15 150.915 L 171.592 150.864 L 171.592 150.864 Q 172.178 150.864 172.331 151.222 L 172.331 151.222 L 172.331 151.222 Q 172.375 151.325 172.375 151.434 L 172.375 151.434 L 172.375 151.434 Q 172.375 152.042 171.446 152.042 L 171.446 152.042 L 170.824 152.042 L 170.824 161.043 L 170.824 161.043 Q 172.668 161.16 173.279 161.16 L 173.279 161.16 L 173.279 161.16 Q 173.89 161.16 174.051 161.087 L 174.051 161.087 L 174.051 161.087 Q 174.483 160.911 174.94 160.095 L 174.94 160.095 L 174.94 160.095 Q 175.397 159.279 175.621 159.082 L 175.621 159.082 L 175.621 159.082 Q 175.844 158.884 176.085 158.884 L 176.085 158.884 L 176.085 158.884 Q 176.576 158.884 176.641 159.448 L 176.641 159.448 L 176.641 159.448 Q 176.649 159.477 176.649 159.609 L 176.649 159.609 L 176.649 159.609 Q 176.649 159.74 176.341 160.161 L 176.341 160.161 L 176.341 160.161 Q 176.034 160.582 175.756 161.23 L 175.756 161.23 L 175.756 161.23 Q 175.478 161.877 175.375 162.338 L 175.375 162.338 L 175.375 162.338 Q 175.193 163.143 174.746 163.143 L 174.746 163.143 L 174.746 163.143 Q 174.49 163.143 174.318 162.953 L 174.318 162.953 L 174.318 162.953 Q 174.146 162.763 174.146 162.455 L 174.146 162.455 L 174.146 162.455 Q 174.146 162.419 174.146 162.382 L 174.146 162.382 L 174.146 162.382 Q 174.146 162.346 174.153 162.309 Z  M 190.055 136.367 L 187.984 140.911 L 187.984 140.911 Q 189.602 142.155 189.792 142.346 L 189.792 142.346 L 190.055 142.616 L 190.055 142.616 Q 190.282 142.829 190.436 142.829 L 190.436 142.829 L 190.436 142.829 Q 190.589 142.829 190.707 142.752 L 190.707 142.752 L 190.707 142.752 Q 190.824 142.675 190.988 142.503 L 190.988 142.503 L 190.988 142.503 Q 191.153 142.331 191.358 142.163 L 191.358 142.163 L 192.99 140.904 L 190.992 136.594 L 190.992 136.594 Q 190.794 136.162 190.681 135.942 L 190.681 135.942 L 190.681 135.942 Q 190.568 135.723 190.476 135.723 L 190.476 135.723 L 190.476 135.723 Q 190.385 135.723 190.293 135.88 L 190.293 135.88 L 190.293 135.88 Q 190.202 136.038 190.055 136.367 L 190.055 136.367 Z  M 187.121 145.39 L 185.467 145.324 L 184.384 145.383 L 184.384 145.383 Q 183.813 145.383 183.813 144.922 L 183.813 144.922 L 183.813 144.922 Q 183.813 144.621 184.289 144.256 L 184.289 144.256 L 184.289 144.256 Q 185.138 143.582 185.869 142.163 L 185.869 142.163 L 188.416 137.04 L 189.323 135.115 L 189.323 135.115 Q 189.645 134.406 189.876 134.131 L 189.876 134.131 L 189.876 134.131 Q 190.106 133.857 190.465 133.857 L 190.465 133.857 L 190.465 133.857 Q 190.824 133.857 191.069 134.098 L 191.069 134.098 L 191.069 134.098 Q 191.314 134.34 191.658 135.079 L 191.658 135.079 L 193.261 138.504 L 193.261 138.504 Q 195.317 142.587 195.449 142.829 L 195.449 142.829 L 195.719 143.319 L 195.719 143.319 Q 196.041 143.882 196.166 143.999 L 196.166 143.999 L 196.166 143.999 Q 196.29 144.117 196.422 144.197 L 196.422 144.197 L 196.422 144.197 Q 197 144.541 197 144.812 L 197 144.812 L 197 144.812 Q 197 145.383 196.429 145.383 L 196.429 145.383 L 195.324 145.331 L 193.839 145.383 L 193.839 145.383 Q 193.465 145.383 193.253 145.236 L 193.253 145.236 L 193.253 145.236 Q 193.041 145.09 193.041 144.797 L 193.041 144.797 L 193.041 144.797 Q 193.041 144.197 194.373 144.197 L 194.373 144.197 L 194.373 144.197 Q 194.453 144.197 194.534 144.197 L 194.534 144.197 L 194.534 144.197 Q 194.614 144.197 194.695 144.19 L 194.695 144.19 L 194.695 144.19 Q 194.497 143.904 194.285 143.465 L 194.285 143.465 L 193.539 141.943 L 192.163 143.012 L 192.163 143.012 Q 191.49 143.531 191.16 143.93 L 191.16 143.93 L 191.16 143.93 Q 190.831 144.329 190.56 144.329 L 190.56 144.329 L 190.56 144.329 Q 190.289 144.329 190.132 144.197 L 190.132 144.197 L 190.132 144.197 Q 189.975 144.065 189.85 143.919 L 189.85 143.919 L 189.543 143.568 L 189.543 143.568 Q 189.411 143.414 189.192 143.238 L 189.192 143.238 L 188.065 142.397 L 188.065 142.397 Q 187.721 142.148 187.362 141.863 L 187.362 141.863 L 186.287 144.234 L 186.506 144.234 L 186.506 144.234 Q 187.223 144.234 187.545 144.362 L 187.545 144.362 L 187.545 144.362 Q 187.867 144.49 187.867 144.848 L 187.867 144.848 L 187.867 144.848 Q 187.867 145.39 187.121 145.39 L 187.121 145.39 Z  M 169.792 145.383 L 168.423 145.339 L 166.96 145.383 L 166.96 145.383 Q 166.631 145.383 166.44 145.225 L 166.44 145.225 L 166.44 145.225 Q 166.25 145.068 166.25 144.804 L 166.25 144.804 L 166.25 144.804 Q 166.25 144.541 166.473 144.373 L 166.473 144.373 L 166.473 144.373 Q 166.696 144.204 167.084 144.204 L 167.084 144.204 L 167.684 144.204 L 167.684 135.181 L 167.084 135.181 L 167.084 135.181 Q 166.696 135.181 166.473 135.02 L 166.473 135.02 L 166.473 135.02 Q 166.25 134.859 166.25 134.596 L 166.25 134.596 L 166.25 134.596 Q 166.25 134.332 166.44 134.168 L 166.44 134.168 L 166.44 134.168 Q 166.631 134.003 166.96 134.003 L 166.96 134.003 L 168.423 134.054 L 169.792 134.003 L 169.792 134.003 Q 170.377 134.003 170.531 134.362 L 170.531 134.362 L 170.531 134.362 Q 170.575 134.464 170.575 134.574 L 170.575 134.574 L 170.575 134.574 Q 170.575 135.181 169.638 135.181 L 169.638 135.181 L 169.045 135.181 L 169.045 138.094 L 174.3 138.094 L 174.3 135.181 L 173.612 135.181 L 173.612 135.181 Q 173.239 135.181 173.012 135.02 L 173.012 135.02 L 173.012 135.02 Q 172.785 134.859 172.785 134.596 L 172.785 134.596 L 172.785 134.596 Q 172.785 134.332 172.975 134.168 L 172.975 134.168 L 172.975 134.168 Q 173.165 134.003 173.502 134.003 L 173.502 134.003 L 174.958 134.054 L 176.312 134.003 L 176.312 134.003 Q 176.905 134.003 177.044 134.362 L 177.044 134.362 L 177.044 134.362 Q 177.088 134.464 177.088 134.574 L 177.088 134.574 L 177.088 134.574 Q 177.088 135.181 176.18 135.181 L 176.18 135.181 L 175.654 135.181 L 175.654 144.204 L 176.18 144.204 L 176.18 144.204 Q 176.685 144.204 176.887 144.384 L 176.887 144.384 L 176.887 144.384 Q 177.088 144.563 177.088 144.746 L 177.088 144.746 L 177.088 144.746 Q 177.088 145.383 176.312 145.383 L 176.312 145.383 L 174.958 145.339 L 173.502 145.383 L 173.502 145.383 Q 173.165 145.383 172.975 145.225 L 172.975 145.225 L 172.975 145.225 Q 172.785 145.068 172.785 144.804 L 172.785 144.804 L 172.785 144.804 Q 172.785 144.541 173.012 144.373 L 173.012 144.373 L 173.012 144.373 Q 173.239 144.204 173.612 144.204 L 173.612 144.204 L 174.3 144.204 L 174.3 139.17 L 169.045 139.17 L 169.045 144.204 L 169.638 144.204 L 169.638 144.204 Q 170.15 144.204 170.363 144.384 L 170.363 144.384 L 170.363 144.384 Q 170.575 144.563 170.575 144.746 L 170.575 144.746 L 170.575 144.746 Q 170.575 145.383 169.792 145.383 L 169.792 145.383 Z " fill="rgb(0,0,0)"/></g></svg>